<svg width="597" height="173" viewBox="0 0 597 173" fill="none" xmlns="http://www.w3.org/2000/svg">
<path d="M7.4725 161.5C2.43524 160.149 0.647221 158.215 0.11918 153.325C0.0592744 139.74 0.029632 126.408 0 113.076C0.454157 111.446 0.602891 109.557 2.59508 108.98C3.65514 108.673 4.8198 108.725 6.2038 108.602C20.3353 108.592 34.2002 108.6 48.065 108.578C48.4939 108.578 48.9222 108.266 49.3508 108.099C49.3508 95.1946 49.3508 82.2903 49.3508 69.1372C48.7009 69.1372 48.0804 69.1471 47.4603 69.1352C46.0633 69.1083 44.6453 69.212 43.2738 69.0088C40.1773 68.5499 39.3432 67.5309 39.3906 64.3949C39.4277 61.9407 39.3505 59.4494 39.7511 57.0452C40.2332 54.1522 42.0421 52.0319 44.9545 50.6477C46.7467 50.3043 48.3319 49.8631 49.9189 49.8568C63.2244 49.8042 76.5303 49.8319 89.8361 49.8321C90.2501 49.8321 90.6642 49.7951 91.1229 49.7733C91.1229 43.9609 91.1229 38.2521 91.1229 32.5172C90.8963 32.4787 90.7447 32.4304 90.5932 32.4304C74.8095 32.4304 59.0255 32.3977 43.242 32.4688C40.1739 32.4826 37.1745 33.1649 34.4274 34.657C27.2643 37.2563 21.2287 45.8457 20.8988 53.3651C20.4657 63.2396 25.033 70.3202 32.9999 75.5068C35.8466 77.3601 39.0213 78.7141 42.3801 80.4705C42.3801 85.9305 42.3801 91.9623 42.3801 98.3084C39.51 97.7384 36.6698 97.4002 33.9709 96.5936C27.3674 94.6201 21.2857 91.5723 16.0109 87.0774C7.52068 79.8425 2.74303 70.8013 1.73987 59.593C0.768069 48.735 3.31311 38.9188 9.51009 30.0995C16.7345 19.8178 26.8091 13.9045 39.2698 12.1519C42.5101 11.6962 45.8182 11.5638 49.096 11.553C66.8298 11.4945 84.5639 11.546 102.298 11.5C106.605 11.4889 111.056 14.2834 110.999 20.1351C110.869 33.658 110.965 47.1829 110.944 60.707C110.935 66.2367 107.889 69.1586 102.263 69.1518C91.5369 69.1388 80.8103 69.1376 70.0838 69.1315C69.6089 69.1313 69.134 69.1315 68.5696 69.1315C68.5696 71.9494 68.5696 74.664 68.5696 77.4021C71.0824 77.9778 73.6598 78.442 76.1625 79.1632C87.2714 82.3644 96.7945 87.9712 103.62 97.5241C107.83 103.417 109.715 110.088 110.117 117.245C110.835 130.002 106.808 141.029 97.6681 149.99C91.202 156.329 83.0668 159.477 74.2147 160.903C72.784 161.134 71.3251 161.191 69.614 161.366C48.7232 161.435 28.0979 161.468 7.4725 161.5ZM19.6154 142.602C29.7759 142.604 39.9363 142.617 50.0966 142.604C55.6858 142.597 61.2748 142.548 67.1459 142.564C68.853 142.348 70.5856 142.252 72.2627 141.896C79.3225 140.399 85.1512 136.908 88.7542 130.571C93.312 122.554 92.016 113.275 85.7646 106.441C81.0961 101.337 75.2633 98.2517 68.4851 96.4603C68.4851 97.2137 68.4855 97.7994 68.4851 98.3851C68.4804 104.503 68.5509 110.622 68.4431 116.737C68.3762 120.534 67.1243 123.911 63.3578 125.531C61.7419 126.226 59.8178 126.46 58.0309 126.471C45.6347 126.548 33.2378 126.511 20.8412 126.511C20.2739 126.511 19.7067 126.511 19.0564 126.511C19.0564 131.897 19.0548 137.042 19.0675 142.187C19.0678 142.299 19.2324 142.41 19.6154 142.602Z" fill="#002FBD"/>
<path d="M137.176 57.536V42.432H208.344V57.536H180.952V136H164.568V57.536H137.176ZM250.619 72.512V86.976H244.859C233.595 86.976 226.555 92.992 226.555 105.28V136H210.939V72.896H225.659L226.555 82.112C229.243 75.84 235.259 71.616 243.707 71.616C245.883 71.616 248.059 71.872 250.619 72.512ZM304.069 72.768H319.685V136H305.221L304.069 127.552C300.229 133.568 292.037 137.664 283.589 137.664C268.997 137.664 260.421 127.808 260.421 112.32V72.768H276.037V106.816C276.037 118.848 280.773 123.712 289.477 123.712C299.333 123.712 304.069 117.952 304.069 105.92V72.768ZM329.7 116.8H344.548C344.676 122.304 348.772 125.76 355.94 125.76C363.236 125.76 367.204 122.816 367.204 118.208C367.204 115.008 365.54 112.704 359.908 111.424L348.516 108.736C337.124 106.176 331.62 100.8 331.62 90.688C331.62 78.272 342.116 70.848 356.708 70.848C370.916 70.848 380.516 79.04 380.644 91.328H365.796C365.668 85.952 362.084 82.496 356.068 82.496C349.924 82.496 346.34 85.312 346.34 90.048C346.34 93.632 349.156 95.936 354.532 97.216L365.924 99.904C376.548 102.336 381.924 107.2 381.924 116.928C381.924 129.728 371.044 137.664 355.428 137.664C339.684 137.664 329.7 129.216 329.7 116.8ZM387.06 165.312V152.256H396.404C402.548 152.256 406.388 150.848 409.076 143.424L410.868 138.688L385.396 72.768H401.908L418.164 118.848L435.316 72.768H451.444L420.468 150.08C415.732 161.856 409.076 166.72 398.708 166.72C394.356 166.72 390.516 166.208 387.06 165.312ZM475.93 136H460.314V72.768H474.778L476.058 80.96C480.026 74.56 487.706 70.848 496.282 70.848C512.154 70.848 520.346 80.704 520.346 97.088V136H504.73V100.8C504.73 90.176 499.482 85.056 491.418 85.056C481.818 85.056 475.93 91.712 475.93 101.952V136ZM551.433 136H535.945V40.768H551.433V99.264L576.009 72.768H595.593L571.529 97.856L595.081 136H577.161L560.649 109.376L551.433 118.976V136Z" fill="#002FBD"/>
</svg>
